<svg xmlns="http://www.w3.org/2000/svg" viewBox="0 370.6 419.5 73.2" enable-background="new 0 370.6 419.5 73.2"><path fill="#0065A4" d="M59.1 428.1H27.5v-6.2c9.8-8.5 15.6-14.1 17.5-16.6 1.9-2.5 2.9-4.9 2.9-6.9s-.6-3.6-1.9-4.7c-1.3-1.1-3.1-1.7-5.4-1.7-3.2 0-6.4 1.3-9.7 3.9l-3-7.4c4.2-3.1 9.1-4.6 14.7-4.6 4.8 0 8.6 1.3 11.4 3.8 2.8 2.5 4.2 5.9 4.2 10 0 3-.9 6-2.7 9.1-1.8 3.1-6.2 7.4-13 12.8v.1h16.6v8.4m78.4-13.1h-21.7c.2 1.9 1.2 3.5 2.9 4.5 1.8 1.1 4 1.6 6.6 1.6 3.4 0 6.5-.4 9.4-1.3l1.3 6.8c-3.4 1.4-7.4 2.1-12.2 2.1-5.6 0-10-1.5-13.2-4.5-3.2-3-4.8-7.1-4.8-12.2 0-4.8 1.5-8.9 4.6-12.3 3.1-3.4 7.2-5.2 12.3-5.2 4.8 0 8.5 1.5 11.1 4.6s3.9 7 3.9 11.8c.2 1.7 0 3.1-.2 4.1m-21.9-7h12.6c0-1.6-.5-3-1.4-4.4-.9-1.4-2.4-2.1-4.6-2.1-1.8 0-3.3.6-4.4 1.8-1.2 1.1-1.9 2.7-2.2 4.7m28.3 20.1v-47.7h10.3v19h.1c1-1.4 2.4-2.5 4.1-3.4 1.7-.9 3.5-1.3 5.4-1.3 3.6 0 6.5 1.3 8.7 3.8 2.1 2.5 3.2 6.1 3.2 10.7v18.9h-10.3v-17.8c0-4.9-1.8-7.4-5.5-7.4-1.5 0-2.9.5-4 1.6-1.1 1-1.7 2.5-1.7 4.3v19.3h-10.3m68.1-19.4v11.4c0 3.3.2 6 .5 8h-9.3l-.6-3.3h-.3c-2.3 2.7-5.4 4-9.6 4-3.2 0-5.8-1-7.8-2.9-2-2-3-4.3-3-7.1 0-4.1 1.7-7.2 5.1-9.3 3.4-2.2 8.3-3.2 14.6-3.2v-.4c0-2.7-2.1-4.1-6.1-4.1-3.3 0-6.4.8-9.3 2.5l-1.9-6.5c3.6-2 8-3 13-3 4.8 0 8.5 1.2 10.9 3.6 2.6 2.3 3.8 5.8 3.8 10.3m-9.9 7.2v-3.3c-6.5 0-9.8 1.7-9.8 5 0 1.2.4 2.1 1.1 2.8.7.7 1.8 1 3 1 1.4 0 2.7-.5 3.9-1.4 1.2-1 1.8-2.3 1.8-4.1m18.2 12.2v-22.2c0-3.2-.1-6.7-.2-10.5h8.9l.5 4.6h.3c2.4-3.6 5.9-5.4 10.4-5.4 3.7 0 6.6 1.2 8.8 3.7 2.2 2.5 3.3 6 3.3 10.5V428H242v-17.9c0-4.9-1.8-7.3-5.5-7.3-1.5 0-2.8.6-4 1.7-1.2 1.1-1.8 2.7-1.8 4.7v18.7h-10.4m62.5-47.5h10.3v37.9c0 3.6.1 6.8.2 9.8h-9.2l-.4-4.9h-.1c-2.3 3.8-5.9 5.7-10.7 5.7-4 0-7.5-1.6-10.2-4.7-2.8-3.1-4.2-7.2-4.2-12.1 0-5.2 1.5-9.5 4.4-12.6 2.9-3.2 6.5-4.8 10.8-4.8 4.2 0 7.2 1.2 9 3.7h.1v-18m0 32.9v-3.8c0-2-.6-3.7-1.8-5-1.2-1.3-2.7-2-4.6-2-2.3 0-4.1.9-5.4 2.5-1.3 1.7-2 3.9-2 6.7 0 2.7.7 4.9 2 6.5 1.3 1.6 3.1 2.4 5.3 2.4 1.6 0 3.1-.6 4.4-1.8 1.5-1.1 2.1-2.9 2.1-5.5m16.8 13.2l1.8-7.4c1.2.7 2.7 1.2 4.5 1.7 1.8.5 3.3.7 4.7.7 3 0 4.5-.9 4.5-2.6 0-.9-.4-1.5-1.1-2-.7-.5-2-1-3.9-1.6-6.4-2-9.6-5.2-9.6-9.8 0-3.1 1.3-5.7 3.8-7.8 2.5-2 5.8-3.1 9.9-3.1 3.6 0 6.7.6 9.5 1.9l-1.8 7c-2.6-1.2-5-1.8-7.4-1.8-2.7 0-4 .9-4 2.6 0 .8.4 1.4 1.2 2 .8.5 2.2 1.1 4.3 1.8 3.1 1 5.4 2.3 6.9 3.9s2.2 3.7 2.2 6.2c0 3.2-1.3 5.8-3.8 7.7-2.5 1.9-6.1 2.9-10.6 2.9-4.4 0-8-.7-11.1-2.3m42.6-3.9c0 1.8-.6 3.3-1.7 4.5-1.1 1.2-2.6 1.7-4.4 1.7-1.8 0-3.2-.6-4.4-1.8-1.1-1.2-1.7-2.7-1.7-4.5 0-1.8.6-3.3 1.7-4.5 1.2-1.2 2.6-1.8 4.4-1.8 1.8 0 3.3.6 4.4 1.7 1.1 1.4 1.7 2.9 1.7 4.7m6.1-4.4v-37.8h10.3v19h.1c2.3-3.2 5.7-4.7 10.3-4.7 4.1 0 7.4 1.5 10 4.6 2.6 3.1 3.9 7 3.9 12 0 3.4-.7 6.4-2 9.1-1.3 2.7-3.2 4.8-5.6 6.3-2.4 1.5-5 2.2-7.8 2.2-4.6 0-8-1.8-10.2-5.4h-.1l-.5 4.6h-8.8c.3-3 .4-6.2.4-9.9m10.3-8.5v4.3c0 2.2.7 3.9 2 5.1 1.3 1.2 2.8 1.8 4.5 1.8 2.3 0 4-.8 5.4-2.5 1.3-1.6 2-3.9 2-6.8 0-2.8-.6-5-1.9-6.6-1.3-1.7-3.1-2.5-5.4-2.5-1.8 0-3.3.7-4.6 2-1.3 1.4-2 3.1-2 5.2m60.5 5.3h-21.8c.2 1.9 1.2 3.5 2.9 4.5 1.8 1.1 4 1.6 6.6 1.6 3.4 0 6.5-.4 9.4-1.3l1.3 6.8c-3.4 1.4-7.4 2.1-12.2 2.1-5.6 0-10-1.5-13.2-4.5-3.2-3-4.8-7.1-4.8-12.2 0-4.8 1.5-8.9 4.6-12.3 3-3.4 7.2-5.2 12.3-5.2 4.8 0 8.5 1.5 11.1 4.6s3.9 7 3.9 11.8c.3 1.7.2 3.1-.1 4.1m-21.8-7h12.6c0-1.6-.4-3-1.3-4.4-.9-1.4-2.4-2.1-4.6-2.1-1.8 0-3.3.6-4.4 1.8-1.3 1.1-2.1 2.7-2.3 4.7"/><path fill="#686765" d="M0 395.6l11.8 20.6 11.9-20.6H0zm76.3 25.1c.6-1.4-5.4-6.3-1.6-17.2.8-2.2 5.3-1.8 3-7.9-1.7-4.5-4.9-9.9-8.3-13.4-3.4-3.4-7.1-6.5-11.5-8.3-4.6-1.9-8.5-3-14.2-3.1-5-.1-10.7.7-15.3 2.7-4.4 1.9-8.4 4.6-11.8 8-3.4 3.4-6.1 7.4-8 11.8-.4 1-.8 2.1-1.2 3.2h8.4v-.1c1.5-3.5 3.6-6.6 6.3-9.3 2.7-2.7 5.8-4.8 9.3-6.3 3.6-1.5 7.5-2.3 11.4-2.3 4 0 7.8 1 11.4 2.5 3.5 1.5 6.2 3.8 8.9 6.5s5 6.5 6.5 10c1.5 3.6 1.8 6.6 1.8 10.6s-1 7.9-2.6 11.5"/><linearGradient id="a" gradientUnits="userSpaceOnUse" x1="4.468" y1="-283.339" x2="41.118" y2="-283.339" gradientTransform="matrix(1.873 0 0 1.873 0 954.215)"><stop offset="0" stop-color="#fff"/><stop offset="0" stop-color="#878683"/><stop offset=".46" stop-color="#858481"/><stop offset=".626" stop-color="#7E7D7B"/><stop offset=".744" stop-color="#73726F"/><stop offset=".84" stop-color="#62615F"/><stop offset=".921" stop-color="#4C4C4B"/><stop offset=".992" stop-color="#313131"/><stop offset="1" stop-color="#2E2E2E"/></linearGradient><path fill="url(#a)" d="M71.3 406.6c0 4-.4 7.8-2 11.5-1.5 3.5-3.1 6.5-5.8 9.2-2.7 2.7-5.8 5.1-9.3 6.6-3.6 1.5-6.9 2.5-10.8 2.5-4 0-7.7-.3-11.4-1.9-3.5-1.5-6.3-2.8-9-5.5-2.2-2.2-4.8-5.5-6.1-8.2l-8.5-.1.4 1c1.9 4.4 4.6 8.5 8 11.9 8 8 17.9 11.3 29.8 10.2 3.5-.3 7.5-1.3 10.7-2.7 8.8-3.7 16.8-11.9 19.7-21.1.5-1.4-3.7-4.1-2.4-9.4.7-2.8 1.1-4.5.4-7.6"/><path fill="#0065A4" d="M89.2 380.4h10.3v37.9c0 3.6.1 6.8.3 9.8h-9.2l-.4-4.9H90c-2.3 3.8-5.9 5.7-10.7 5.7-4 0-7.5-1.6-10.2-4.7-2.8-3.1-4.2-7.2-4.2-12.1 0-5.2 1.5-9.5 4.4-12.6 2.9-3.2 6.5-4.8 10.8-4.8 4.2 0 7.2 1.2 9 3.7h.1v-18m0 32.9v-3.8c0-2-.6-3.7-1.8-5s-2.7-2-4.6-2c-2.3 0-4.1.9-5.4 2.5-1.3 1.7-2 3.9-2 6.7 0 2.7.7 4.9 2 6.5 1.3 1.6 3.1 2.4 5.3 2.4 1.6 0 3.1-.6 4.4-1.8 1.4-1.1 2.1-2.9 2.1-5.5"/></svg>