<svg xmlns="http://www.w3.org/2000/svg" viewBox="0 1006.4 612.3 106.8" enable-background="new 0 1006.4 612.3 106.8"><path fill="#fff" d="M86.3 1090.2H40.1v-9c14.2-12.4 22.8-20.5 25.6-24.2 2.8-3.7 4.2-7.1 4.2-10.1 0-2.9-.9-5.2-2.8-6.9-1.8-1.7-4.5-2.5-7.9-2.5-4.6 0-9.3 1.9-14.1 5.7l-4.3-10.8c6.1-4.5 13.2-6.8 21.4-6.8 7 0 12.5 1.8 16.6 5.5s6.1 8.6 6.1 14.6c0 4.3-1.3 8.7-4 13.2-2.6 4.5-9 10.8-19 18.7v.2h24.3l.1 12.4m114.2-19h-31.7c.3 2.8 1.7 5 4.3 6.6s5.8 2.4 9.7 2.4c4.9 0 9.5-.6 13.7-1.8l2 9.9c-4.9 2.1-10.9 3.1-17.7 3.1-8.2 0-14.6-2.2-19.2-6.6-4.6-4.3-6.9-10.3-6.9-17.9 0-6.9 2.2-12.9 6.7-18 4.5-5 10.4-7.5 18-7.5 6.9 0 12.4 2.2 16.2 6.7s5.8 10.2 5.8 17.3c-.3 2.3-.5 4.2-.9 5.8m-31.9-10.3H187c0-2.3-.7-4.4-2-6.5-1.3-2-3.6-3.1-6.7-3.1-2.6 0-4.8.9-6.5 2.6-1.7 1.8-2.8 4.1-3.2 7m41.4 29.3v-69.6h15v27.7h.2c1.5-2 3.4-3.7 5.9-5s5.1-1.9 7.9-1.9c5.3 0 9.5 1.8 12.6 5.5s4.7 8.9 4.7 15.7v27.6h-15.1v-25.9c0-7.2-2.7-10.8-8.1-10.8-2.2 0-4.2.8-5.8 2.3s-2.5 3.6-2.5 6.2v28.2H210m99.3-28.2v16.6c0 4.8.2 8.7.7 11.6h-13.6l-.9-4.8h-.4c-3.3 3.9-7.9 5.9-14 5.9-4.7 0-8.5-1.4-11.4-4.3s-4.4-6.3-4.4-10.4c0-5.9 2.5-10.5 7.4-13.6 5-3.2 12.1-4.7 21.4-4.7v-.6c0-4-3-6-9-6-4.9 0-9.4 1.2-13.5 3.7l-2.8-9.5c5.3-2.9 11.6-4.4 19-4.4 7 0 12.3 1.8 16 5.3 3.7 3.5 5.5 8.6 5.5 15.2m-14.5 10.4v-4.8c-9.6 0-14.3 2.4-14.3 7.3 0 1.8.5 3.1 1.6 4.1s2.6 1.5 4.4 1.5c2 0 3.9-.7 5.7-2.1 1.7-1.4 2.6-3.4 2.6-6m26.5 17.8v-32.4c0-4.7-.1-9.8-.4-15.3h13l.7 6.7h.4c3.5-5.2 8.6-7.8 15.1-7.8 5.4 0 9.6 1.8 12.8 5.4 3.2 3.6 4.7 8.8 4.7 15.4v28h-15v-26.1c0-7.1-2.7-10.6-8-10.6-2.2 0-4.1.8-5.8 2.4-1.7 1.6-2.6 3.9-2.6 6.9v27.3l-14.9.1m91.3-69.5h15.1v55.3c0 5.2.1 10 .4 14.3h-13.4l-.6-7.2h-.2c-3.3 5.6-8.5 8.3-15.6 8.3-5.9 0-10.9-2.3-14.9-6.9-4.1-4.6-6.1-10.5-6.1-17.7 0-7.6 2.1-13.8 6.4-18.4s9.5-7 15.7-7c6.1 0 10.5 1.8 13.1 5.5h.2l-.1-26.2m0 47.9v-5.6c0-2.9-.9-5.3-2.6-7.2-1.7-1.9-4-2.9-6.7-2.9-3.3 0-5.9 1.2-7.8 3.7s-2.9 5.7-2.9 9.7 1 7.2 2.9 9.5c1.9 2.4 4.5 3.5 7.8 3.5 2.3 0 4.5-.9 6.4-2.6 1.9-1.6 2.9-4.3 2.9-8.1m24.4 19.2l2.7-10.8c1.8 1 3.9 1.8 6.5 2.5s4.8 1 6.8 1c4.4 0 6.6-1.3 6.6-3.8 0-1.3-.5-2.2-1.6-2.9-1.1-.7-2.9-1.5-5.7-2.3-9.4-2.9-14.1-7.7-14.1-14.3 0-4.6 1.9-8.4 5.5-11.4 3.7-3 8.5-4.5 14.4-4.5 5.2 0 9.8.9 13.9 2.7l-2.7 10.3c-3.8-1.7-7.4-2.6-10.7-2.6-3.9 0-5.9 1.3-5.9 3.8 0 1.2.6 2.1 1.8 2.9 1.2.8 3.3 1.6 6.2 2.6 4.6 1.4 7.9 3.3 10 5.7 2.1 2.4 3.2 5.3 3.2 9 0 4.7-1.9 8.5-5.6 11.3s-8.9 4.2-15.5 4.2c-5.9.1-11.2-1-15.8-3.4m62.1-5.6c0 2.7-.8 4.9-2.5 6.6s-3.8 2.5-6.4 2.5-4.7-.8-6.4-2.6c-1.7-1.7-2.5-3.9-2.5-6.5s.8-4.8 2.5-6.5 3.8-2.6 6.4-2.6 4.8.8 6.4 2.5c1.7 1.8 2.5 4 2.5 6.6m9-6.3v-55.2h15.1v27.7h.2c3.3-4.6 8.3-6.9 15-6.9 6 0 10.8 2.2 14.7 6.7 3.8 4.5 5.7 10.3 5.7 17.5 0 4.9-1 9.4-2.9 13.3-1.9 4-4.6 7-8.1 9.2s-7.3 3.3-11.4 3.3c-6.7 0-11.7-2.6-14.9-7.8h-.2l-.7 6.7h-12.8c.2-4.5.3-9.3.3-14.5m15-12.5v6.3c0 3.3 1 5.7 3 7.5 2 1.7 4.2 2.6 6.5 2.6 3.3 0 5.9-1.2 7.8-3.6 1.9-2.4 2.9-5.7 2.9-9.9 0-4-.9-7.2-2.8-9.7-1.9-2.4-4.5-3.7-7.8-3.7-2.6 0-4.8 1-6.7 2.9-1.9 2-2.9 4.5-2.9 7.6m88.3 7.8h-31.7c.3 2.8 1.7 5 4.3 6.6s5.8 2.4 9.7 2.4c5 0 9.5-.6 13.7-1.8l2 9.9c-4.9 2.1-10.9 3.1-17.7 3.1-8.2 0-14.6-2.2-19.2-6.6-4.6-4.3-6.9-10.3-6.9-17.9 0-6.9 2.2-12.9 6.7-18 4.4-5 10.5-7.5 18-7.5 7 0 12.4 2.2 16.2 6.7s5.8 10.2 5.8 17.3c-.3 2.3-.5 4.2-.9 5.8m-31.9-10.3h18.4c0-2.3-.7-4.4-2-6.5-1.3-2-3.6-3.1-6.7-3.1-2.6 0-4.8.9-6.5 2.6-1.7 1.8-2.8 4.1-3.2 7M0 1042.8l17.2 30.1 17.4-30.1H0zm112.5-2c-2.6-6.1-6.9-13.1-11.4-17.6-5-5-10.3-9.4-16.8-12.2-6.7-2.8-12.3-4.4-20.7-4.6-7.3-.2-15.6 1-22.3 3.9-6.5 2.7-12.3 6.7-17.3 11.6-5 5-8.9 10.8-11.7 17.3-.6 1.5-1.2 3.1-1.7 4.6h12.2l.1-.2c2.2-5.1 5.2-9.7 9.2-13.6 3.9-3.9 8.5-7 13.6-9.2 5.3-2.2 10.9-3.4 16.7-3.4s11.3 1.5 16.6 3.7c5.1 2.2 9.1 5.5 13 9.5 3.9 3.9 7.3 9.4 9.5 14.5l.3.8s3.8-2.8 5.2-3.4c1.3-.5 5.5-1.7 5.5-1.7zm-14.6 41.3c-1.4 2.5-3.1 4.7-5.3 6.9-3.9 3.9-8.4 7.4-13.5 9.6-5.3 2.2-10 3.6-15.8 3.6s-11.3-.5-16.6-2.7c-5.1-2.2-9.1-4.1-13.1-8.1-3.2-3.2-6.9-8.1-9-12l-12.5-.1.6 1.4c2.7 6.5 6.7 12.3 11.7 17.3 11.6 11.6 26.1 16.6 43.5 14.9 5.1-.5 10.9-1.9 15.6-3.9 8.9-3.8 17.2-10.7 22.9-19 0 0-3.4-2.4-4.5-3.4-1-1-4-4.5-4-4.5zm32.2-61.4h15v55.3c0 5.2.1 10 .4 14.3h-13.4l-.6-7.2h-.2c-3.3 5.6-8.5 8.3-15.6 8.3-5.9 0-10.9-2.3-14.9-6.9-4.1-4.6-6.1-10.5-6.1-17.7 0-7.6 2.1-13.8 6.4-18.4s9.5-7 15.7-7c6.1 0 10.5 1.8 13.1 5.5h.2v-26.2m0 47.9v-5.6c0-2.9-.9-5.3-2.6-7.2s-4-2.9-6.7-2.9c-3.3 0-5.9 1.2-7.9 3.7-1.9 2.5-2.9 5.7-2.9 9.7s1 7.2 2.9 9.5c1.9 2.4 4.5 3.5 7.8 3.5 2.3 0 4.5-.9 6.4-2.6 2-1.6 3-4.3 3-8.1"/></svg>